<svg id="Layer_1" data-name="Layer 1" xmlns="http://www.w3.org/2000/svg" viewBox="0 0 274.06 327.36">
  <defs>
    <style>
      .cls-1 {
        fill: #042b72;
      }

      .cls-2 {
        fill: #c30052;
      }

      .cls-3 {
        fill: #fefefe;
      }

      .cls-4 {
        fill: #fdfdfd;
      }

      .cls-5 {
        fill: #f0f0f0;
      }

      .cls-6 {
        fill: #e5e5e5;
      }

      .cls-7 {
        fill: #e6e6e6;
      }

      .cls-8 {
        fill: #f2f2f2;
      }
    </style>
  </defs>
  <g>
    <path class="cls-1" d="M1792.83,214.58c.17-.94.33-1.26.25-1.49-6.27-16.34.48-28.62,11.38-40.47,8.91-9.69,16.47-20.63,24.41-31.19,2.6-3.45,4.16-3.38,6.76,0,12.11,15.85,24.41,31.56,36.69,47.28,4.89,6.25.63,12.6-.36,18.53-1.07,6.36.21,7.52,6.24,7.44,22.5-.3,45-.18,67.49-.1,15.46.05,23.51,7.92,23.54,23.17q.12,66.22,0,132.46c0,15.59-8.26,23.52-24.17,23.55-19.68,0-39.37.2-59-.12-5.21-.09-7.35,1.29-6.39,6.52a10.44,10.44,0,0,1,0,1.68c.08,5.62-1.78,12.47.78,16.53,2.9,4.6,10.29,1.6,15.69,1.76,4.4.13,4.76,2.13,5,5.73.3,5.37-2.92,4.95-6.45,4.95q-51.47-.06-102.93,0c-7,0-14.06,0-21.09,0-3.5,0-7.23,1.11-7.25-5,0-5.63,2.85-5.5,6.83-5.55,14.68-.21,14.68-.29,14.68-15.1,0-11.34,0-11.34-11.54-11.34-18,0-36,0-54,0-15.9,0-24-7.94-24.06-23.64q-.11-65.81,0-131.61c0-16.05,7.75-23.88,23.6-23.93,21.94-.08,43.87,0,65.81,0Z" transform="translate(-1695.22 -103.51)"/>
    <path class="cls-2" d="M1894.4,177.7c-6.89-33.1-32.72-53.77-64.58-52.69-30,1-55.24,23.22-59.36,52.49,8-1.59,10.21,2.27,9.26,9.59-.92,7.13,3.06,16.39-1.72,21-4.36,4.18-13.47.38-20.37,1.34-8.28,1.15-11.09-1.89-9.88-10a51.73,51.73,0,0,0,0-11.8c-.51-6.38-.62-12,8.58-10.1,2.53.52,2.84-1.49,3.49-3.56,8.09-25.9,10.18-29,32.62-49.06-9.73,0-18.26.06-26.78,0-2.77,0-3.62,1.93-5.07,3.67-6.88,8.2-16.51,9.09-23.58,2.4a16,16,0,0,1-.29-22.66c6.89-6.87,17.13-6.37,23.49,1.89,2.46,3.19,4.84,3.95,8.4,3.94q61.18-.11,122.35,0a8.53,8.53,0,0,0,7.66-3.72c6.62-8.36,16.45-9.07,23.52-2.39a15.89,15.89,0,0,1,.29,22.64c-6.92,6.87-17,6.39-23.54-1.83-2.45-3.08-4.75-4.13-8.4-4-5.74.22-11.51.06-19.62.06,18.86,13.35,29.94,29.26,33.81,49.71.76,4,3.57,3.21,5.74,2.89,5.53-.81,6.62,1.61,6.29,6.56-.54,8.09,2.64,19.05-1.48,23.58-4.77,5.26-15.89,1-24.22,1.7-4.65.41-6.66-1.06-6.29-6a99.63,99.63,0,0,0,0-16C1884.16,180.37,1885.29,175.63,1894.4,177.7Z" transform="translate(-1695.22 -103.51)"/>
    <path class="cls-3" d="M1832.53,362c-32.62,0-65.24-.14-97.86.13-5.89.05-8.17-.86-8.09-7.59.41-33.46.32-66.93.06-100.39,0-5.91.92-8.39,7.68-8.22,19.39.5,38.8.14,58.2.23,2.29,0,5.1-1.16,6.51,2.21,1.51,3.61-1.08,4.8-3.15,6.73-8.21,7.63-8.1,17.68.8,24.54,3.26,2.51,3.85,5,3.81,8.46q-.15,14.34,0,28.68c.11,9.85,3.47,13.53,13,13.67,12.65.19,25.31.21,38,0,9-.15,12.45-3.92,12.63-13.15.13-6.75,0-13.5,0-20.25,0-7.6-1.08-14.75,6.83-20.79,6.67-5.09,4.58-14.81-2.55-21.37-1.86-1.71-4.14-2.68-3.09-6,1.13-3.57,3.82-2.72,6.18-2.72,20,0,39.93.06,59.89-.1,4.38,0,6.56.65,6.53,5.87q-.33,52.3,0,104.61c0,5.52-2.57,5.55-6.63,5.54C1898.33,362,1865.43,362,1832.53,362Z" transform="translate(-1695.22 -103.51)"/>
    <path class="cls-4" d="M1831.7,383.38q-55.26,0-110.52,0c-12.34,0-15.52-3.16-15.52-15.32q0-64.12,0-128.24c0-11.71,3.16-14.81,15-14.82,22.78,0,45.57.29,68.33-.2,6.07-.14,7.26,2.69,7.46,7.21.3,6.56-5,3.16-7.27,3.2q-33.32.5-66.64.07c-5.22-.06-6.63,1.43-6.6,6.62q.3,62,0,124c0,5.91,2,6.88,7.21,6.87q109.26-.19,218.5,0c5.61,0,7-1.68,7-7.14q-.35-61.59,0-123.17c.05-6.28-2.16-7.3-7.72-7.22-22.21.28-44.43.18-66.65,0-2.33,0-7,2.35-6.21-3.53.51-4,1.06-7,6.86-6.95,23.9.42,47.81.1,71.71.22,8.43,0,12.22,3.91,12.24,12.49q.11,66.66,0,133.3c0,9-4.12,12.52-14.06,12.54Q1888.22,383.44,1831.7,383.38Z" transform="translate(-1695.22 -103.51)"/>
    <path class="cls-3" d="M1827.07,161.12c0,5.59-.06,8.65,0,11.7.13,5.81.25,10.82-5.84,15-6.57,4.55-6.18,15-.83,21.11a15.49,15.49,0,0,0,21.91,1.75c6.19-5.17,8.62-16.46,2.48-20.92-10.26-7.45-6.59-17-6.06-27,8,10.2,16,20.35,23.77,30.66,1.65,2.17.41,5,0,7.4-2.33,14.68-5,29.32-7.15,44-.75,5-2.66,7-8.05,6.71-10.37-.49-20.78-.29-31.17-.07-3.91.08-6.07-.62-6.73-5.11-2.38-16.09-5.16-32.12-7.86-48.16A7.24,7.24,0,0,1,1803,192C1810.58,182.4,1818.08,172.68,1827.07,161.12Z" transform="translate(-1695.22 -103.51)"/>
    <path class="cls-4" d="M1831.48,420.29c-10.09,0-20.2-.24-30.28.1-4.89.17-6-1.56-6.08-6.23-.34-20.38-.5-20.38,19.39-20.38,16.27,0,32.54.17,48.8-.1,4.74-.08,6,1.26,6.09,6,.26,20.58.43,20.58-20.25,20.58Z" transform="translate(-1695.22 -103.51)"/>
    <path class="cls-4" d="M1831.24,319.79c-5.65-.74-14.85,3.1-18.9-1.48-3.4-3.85-1.12-12.81-1.16-19.51-.07-15.91,0-16.12,17.43-15.82,8,.14,18.45-3.64,23.35,1.74,3.85,4.24,1.29,14.43,1.35,22,.11,13.09,0,13.09-13.2,13.09Z" transform="translate(-1695.22 -103.51)"/>
    <path class="cls-4" d="M1832.17,272.37c-8.14,0-16.27-.09-24.41,0-3.88.06-7-1.13-7-5.3s3.32-5.17,7.15-5.15q24.4.15,48.81,0c3.88,0,7.07,1.1,7,5.28s-3.31,5.22-7.16,5.16C1848.44,272.27,1840.3,272.37,1832.17,272.37Z" transform="translate(-1695.22 -103.51)"/>
    <path class="cls-5" d="M1837.41,199.14c-.4,3.18-2.53,4.77-5.71,4.5a4.59,4.59,0,0,1-4.58-5c0-3.44,2.18-5.34,5.26-5.25S1837.48,195.48,1837.41,199.14Z" transform="translate(-1695.22 -103.51)"/>
    <path class="cls-6" d="M1769,193.22c.72,4.1-1,5.48-5.06,5.5s-6.13-.84-6-5.56c.15-3.88,1-5.47,5.22-5.4S1770,188.42,1769,193.22Z" transform="translate(-1695.22 -103.51)"/>
    <path class="cls-6" d="M1906.28,192.88c.52,3.62-.13,6-4.66,5.81-3.69-.15-6.49,0-6.38-5.19.1-4.37,1.33-5.9,5.8-5.75C1904.83,187.89,1907.11,188.57,1906.28,192.88Z" transform="translate(-1695.22 -103.51)"/>
    <path class="cls-7" d="M1916.68,120c-.55,3-2.56,5-5.63,4.72a4.85,4.85,0,0,1-4.81-5.58c.23-3.41,2.51-5.07,5.51-4.85S1916.69,116.5,1916.68,120Z" transform="translate(-1695.22 -103.51)"/>
    <path class="cls-8" d="M1747.74,124.79c-3.09-.77-5.31-2.25-5-5.72s2.68-5,5.73-4.73a4.8,4.8,0,0,1,4.56,5.13C1752.94,122.91,1750.7,124.27,1747.74,124.79Z" transform="translate(-1695.22 -103.51)"/>
    <path class="cls-2" d="M1769,309.17c1,4.63-1.33,5.64-5.58,5.59-3.82,0-5.37-.86-5.42-5.11,0-4.5,1.41-5.79,5.75-5.64C1767.48,304.15,1769.88,304.72,1769,309.17Z" transform="translate(-1695.22 -103.51)"/>
    <path class="cls-2" d="M1900.87,314.56c-3.91.65-5.56-.58-5.6-4.86,0-4.44,1.35-5.84,5.75-5.69,3.74.12,5.49.73,5.46,5.07S1905.36,315.49,1900.87,314.56Z" transform="translate(-1695.22 -103.51)"/>
    <path class="cls-2" d="M1737.54,309.77c-.86-4.16.55-5.9,5.13-5.7,3.65.15,5.68.59,5.27,4.91-.29,3.08.44,6.15-4.45,5.67C1740.18,314.33,1736.39,315.3,1737.54,309.77Z" transform="translate(-1695.22 -103.51)"/>
    <path class="cls-2" d="M1784.38,304.27c3.29-.31,6.14-.51,5.77,4.32-.26,3.44.36,6.41-4.91,6.14-4-.2-6-.69-5.73-5.38C1779.72,305.72,1780.1,303.33,1784.38,304.27Z" transform="translate(-1695.22 -103.51)"/>
    <path class="cls-2" d="M1874.62,309.07c-1.1-5.47,2.34-4.6,5.38-4.95,5.22-.6,4.71,2.56,5,6.05.36,4.86-2.6,4.15-5.69,4.49C1874,315.26,1873.9,312.31,1874.62,309.07Z" transform="translate(-1695.22 -103.51)"/>
    <path class="cls-2" d="M1921.63,314.48c-5,1.18-4.87-2-5.1-5.64-.28-4.54,2-4.51,5.44-4.77,4.88-.36,5.07,2.05,5.22,5.87C1927.36,314.43,1925.25,315.08,1921.63,314.48Z" transform="translate(-1695.22 -103.51)"/>
  </g>
</svg>
