<svg id="Layer_1" data-name="Layer 1" xmlns="http://www.w3.org/2000/svg" viewBox="0 0 226.6 56.35"><defs><style>.cls-1{font-size:20.44px;font-family:Mont-Heavy, Mont;font-weight:800;}.cls-1,.cls-3{fill:#042b72;}.cls-2{letter-spacing:-0.01em;}.cls-4,.cls-5{fill:#c30052;}.cls-5{font-size:10.77px;font-family:Mont-SemiBold, Mont;font-weight:600;letter-spacing:0.2em;}.cls-6{letter-spacing:0.18em;}.cls-7{letter-spacing:0.18em;}.cls-8{letter-spacing:0.19em;}</style></defs><text class="cls-1" transform="translate(83.31 29.69)">MAIN<tspan class="cls-2" x="57.57" y="0">S</tspan><tspan x="70.14" y="0">TREAM</tspan></text><path class="cls-3" d="M-568.77,288.22l-3.87,7.56c-1.72-3.39-3.1-6.72-5-9.72s-1.71-5.47,0-8.51c3.13-5.5,5.79-11.27,8.83-17.28l21.36,42.28h-5.3c-2.53,0-5.06,0-7.59,0a1.73,1.73,0,0,1-1.83-1.16C-564.26,297.13-566.43,292.88-568.77,288.22Z" transform="translate(624.08 -260.27)"/><path class="cls-3" d="M-583.1,316.62c-2.28-4.5-4.38-8.67-6.48-12.83q-7-14-14.12-27.93a3,3,0,0,1,0-3.12c2.14-4,4.14-8.12,6.32-12.45,1.08,2.1,2,3.95,3,5.81q8.88,17.47,17.77,34.94a2.72,2.72,0,0,1,0,2.82C-578.78,308-580.83,312.1-583.1,316.62Z" transform="translate(624.08 -260.27)"/><circle class="cls-4" cx="12.55" cy="29.69" r="5.51"/><circle class="cls-4" cx="16.34" cy="18.9" r="2.75"/><circle class="cls-4" cx="7.04" cy="44.99" r="7.04"/><text class="cls-5" transform="translate(99.09 42.31)">C<tspan class="cls-6" x="10.49" y="0">r</tspan><tspan x="16.73" y="0">eati</tspan><tspan class="cls-7" x="46.95" y="0">v</tspan><tspan x="55.12" y="0">e </tspan><tspan class="cls-8" x="68.94" y="0">H</tspan><tspan x="78.85" y="0">ouse</tspan></text></svg>