<svg id="Layer_1" data-name="Layer 1" xmlns="http://www.w3.org/2000/svg" viewBox="0 0 47.86 48.56"><defs><style>.cls-1{fill:#042b72;}.cls-2{fill:#c30052;}.cls-3{fill:#fefefe;}</style></defs><path class="cls-1" d="M1948.64,319.1a65.47,65.47,0,0,0-7.09-2.63c-3.22-1.19-6.46-2.31-9.71-3.41a1.22,1.22,0,0,1-1-1.38c0-3.69,0-7.37,0-11.06,0-.45-.17-1.11.55-1.12s.61.62.61,1.11c0,3.4,0,6.8,0,10.2a1.28,1.28,0,0,0,1,1.48q7.27,2.49,14.51,5.08c.79.29,1.07.27,1.06-.72,0-5.06,0-10.12,0-15.18a6.58,6.58,0,0,1,.06-1.09.48.48,0,0,1,.52-.41.49.49,0,0,1,.5.43,7.88,7.88,0,0,1,0,1.09c0,5,0,10,0,15.06,0,.87,0,1.22,1.07.85q7.27-2.64,14.61-5.15c.73-.25.87-.63.87-1.32,0-3.28,0-6.56,0-9.84,0-.28,0-.57,0-.85s.15-.76.6-.75.56.37.56.77V306c0,1.9,0,3.8,0,5.7a1.23,1.23,0,0,1-1,1.39c-5.26,1.82-10.51,3.68-15.76,5.54-.36.13-.8.12-1,.5Z" transform="translate(-1925.2 -270.54)"/><path class="cls-1" d="M1933.35,289.62l8.73,3.06c2.06.72,4.11,1.43,6.16,2.18a2.13,2.13,0,0,0,1.53.09l14.38-5.06c.1,0,.17-.14.35-.31l-9-2.31-.94-.25c-.34-.09-.61-.29-.53-.68s.42-.54.83-.43L1966.9,289a.42.42,0,0,1,.12,0c2,1.93,4,3.82,5.83,5.83.59.63-.2.95-.73,1.14-3.32,1.24-6.65,2.46-10,3.69-2.08.77-4.17,1.52-6.24,2.33a1.29,1.29,0,0,1-1.6-.34c-1.47-1.51-3-2.94-4.47-4.45-.54-.57-.83-.5-1.34,0-1.45,1.47-3,2.85-4.43,4.32a1.44,1.44,0,0,1-1.8.41c-5.31-2-10.65-4-16-5.93-1.34-.5-1.39-.74-.35-1.78,1.74-1.75,3.24-3.92,5.31-5.11s4.62-1.33,7-1.93L1943,286c.46-.12,1-.43,1.23.24s-.44.72-.91.84Z" transform="translate(-1925.2 -270.54)"/><path class="cls-2" d="M1956.57,278.61c-1.19,0-2.39,0-3.58,0-.74,0-1-.25-1-1,0-2,0-4.05,0-6.08,0-.45,0-1,.58-1s.64.59.64,1.07c0,1.7,0,3.4,0,5.1,0,.62.14.86.8.83,1.26-.05,2.51,0,3.77,0,.31,0,.68-.06.82.34a.84.84,0,0,1-.27.87q-4.3,5-8.59,10.07c-.45.54-.83.55-1.28,0-2.86-3.4-5.75-6.8-8.6-10.22-.56-.67-.36-1.12.56-1.13,1.22,0,2.43-.05,3.64,0,.73,0,1-.15,1-.93-.06-1.66,0-3.32,0-5,0-.44-.07-1,.54-1s.64.57.64,1c0,2,0,4,0,6,0,1-.38,1.19-1.23,1.16-1.11,0-2.23,0-3.62,0l4.86,5.69c.79.93,1.59,1.84,2.36,2.78.35.42.58.57,1,.06,2.3-2.77,4.63-5.51,7-8.27C1956.6,278.91,1956.57,278.81,1956.57,278.61Z" transform="translate(-1925.2 -270.54)"/><path class="cls-3" d="M1947.79,296c-1.48,1.56-3,3.11-4.41,4.67a.79.79,0,0,1-1,.2l-.56-.21-15-5.63c1.55-1.57,3-3,4.45-4.53.25-.26.46-.19.75-.09l15.72,5.54C1947.81,295.94,1947.85,296,1947.79,296Z" transform="translate(-1925.2 -270.54)"/><path class="cls-3" d="M1971.27,295,1956,300.72c-.35.14-.66.3-1-.06l-4.45-4.79,9.48-3.32,5.81-2.06c.4-.14.77-.35,1.19.11C1968.42,292.08,1969.83,293.53,1971.27,295Z" transform="translate(-1925.2 -270.54)"/></svg>