<svg id="Layer_1" data-name="Layer 1" xmlns="http://www.w3.org/2000/svg" viewBox="0 0 78.93 47.75"><defs><style>.cls-1{fill:#042b72;}.cls-2{fill:#c30052;}.cls-3{fill:#f9fafa;}.cls-4{fill:#fdfdfd;}.cls-5{fill:#f1f1f2;}.cls-6{fill:#f7f7f7;}</style></defs><path class="cls-1" d="M2066,285.68c12.25,0,24.5,0,36.75,0,1.25,0,1.68.45,1.94,1.59a32.55,32.55,0,0,1,0,14.4c-.24,1.06-.68,1.46-1.81,1.42-2.33-.1-4.67,0-7-.05-.9,0-1.14.27-1.12,1.15.07,2,.07,4,0,6,0,.93.3,1.11,1.15,1.1,1.88,0,1.88,0,1.88,1.87,0,2.69,0,5.38,0,8.07,0,1.08-.32,1.52-1.38,1.33-1.33-.23-1.89.24-1.66,1.63.14.83-.34,1.1-1.12,1.08-1.12,0-2.24-.06-3.36,0s-1.4-.4-1.27-1.35-.1-1.58-1.25-1.36c-.26,0-.71.07-.74-.16-.12-1.06-.8-1.27-1.68-1.35-.21,0-.34-.29-.26-.54s.37-.34.64-.38,1,.24,1-.48-.64-.44-1-.49-.67-.11-.64-.51.41-.51.79-.55.92.21.87-.47-.52-.34-.84-.38-.81,0-.82-.47.44-.59.87-.59h5.65c.41,0,.91,0,.91.54s-.51.51-.9.51a13.9,13.9,0,0,0-3,0c-1.75.42-.52,1.89-.78,2.85-.13.48-.45,1.41.78,1.39,2.42-.05,4.84,0,7.26,0,.69,0,.82-.25.81-.86,0-2.47,0-4.93,0-7.4,0-.67-.14-.95-.88-.93-2.38,0-4.76,0-7.13,0-.37,0-.84-.17-.89.5s.46.62.89.62h3c.45,0,.88.09.84.62s-.47.44-.84.44h-5.79c-.38,0-.78,0-.8-.5s.35-.6.74-.55c.77.09,1.06-.22.95-1s.23-1.39,1.2-1.23,1.07-.23,1-1q-.09-3.11,0-6.19c0-.86-.28-1.1-1.08-1s-1.53,0-2.29,0c-.41,0-.71-.18-.74-.62a.65.65,0,0,1,.67-.69,9.49,9.49,0,0,1,1.07,0c5.16,0,10.32,0,15.48,0,.91,0,1.22-.29,1.39-1.14a30.92,30.92,0,0,0,0-12.42c-.16-.84-.48-1.14-1.39-1.14q-36.14,0-72.28,0a1.12,1.12,0,0,0-1.31,1.08,31,31,0,0,0,0,12.55c.16.79.48,1.07,1.32,1.06,3.45-.05,6.91,0,10.36,0,.32,0,.63,0,1,0s.77.27.74.77-.4.52-.78.57c-.7.09-1.7-.35-2,.22a5.32,5.32,0,0,0-.14,2.38c0,1.3,0,2.6,0,3.9,0,.79-.42,1.87,1.07,1.86.21,0,.3.3.3.54,0,.81-.23,1.77,1.14,1.68.21,0,.31.31.24.55a.49.49,0,0,1-.5.37h-5.11a.5.5,0,0,1-.56-.46.53.53,0,0,1,.59-.58c.81,0,1.62,0,2.42,0,.36,0,.71.05.73-.51s-.29-.64-.75-.63c-1.75,0-3.5,0-5.25,0-.62,0-.85.15-.84.82q.06,3.76,0,7.54c0,.63.19.85.84.84,1.75-.05,3.5,0,5.25,0,.61,0,.8-.22.74-.78a.65.65,0,0,1,0-.14c0-1,.31-2.26-.14-3s-1.8-.18-2.75-.31c-.36,0-.8,0-.84-.46s.43-.6.84-.6h4.44c.41,0,.88,0,.89.56s-.42.5-.78.5-.64.06-.6.51.34.32.6.35.77,0,.78.53-.38.52-.75.52-.63,0-.64.47.27.51.61.5.78,0,.8.5-.38.58-.76.55c-.56-.05-.7.23-.65.71,0,.24-.08.56-.28.56-1.49,0-1.08,1-1.09,1.84s-.31,1-1,1c-1.12,0-2.25-.06-3.37,0s-1.62-.29-1.47-1.43c.09-.77.08-1.45-1-1.29-.61.08-.7-.39-.7-.9q0-4.71,0-9.42c0-.65.18-1.06.91-1s.84-.35.84-1c0-2.11,0-4.22,0-6.32,0-.77-.22-1-1-1-1.12.05-2.24,0-3.36,0a1.12,1.12,0,0,1-1.32-1,32.14,32.14,0,0,1,0-15.32c.24-1,.84-1.06,1.67-1.06Q2047.54,285.7,2066,285.68Z" transform="translate(-2026.52 -277.56)"/><path class="cls-1" d="M2063.36,321.5c-6.5,0-13,0-19.51,0-1.09,0-1.47-.27-1.46-1.42,0-7.94,0-15.87,0-23.81,0-.27,0-.54,0-.81s.18-.61.58-.59.52.29.53.64,0,.72,0,1.08c0,7.44,0,14.88,0,22.33,0,1.07.2,1.43,1.36,1.43q18.49-.08,37,0c1,0,1.27-.21,1.26-1.24-.05-7.49,0-15,0-22.47,0-.31,0-.63,0-.94s.08-.85.63-.81.51.43.51.81v5.38c0,6.28,0,12.55,0,18.83,0,1.21-.28,1.63-1.57,1.61C2076.28,321.46,2069.82,321.5,2063.36,321.5Z" transform="translate(-2026.52 -277.56)"/><path class="cls-2" d="M2062.64,291.17h-24.35c-.36,0-.72,0-1.08,0a.62.62,0,0,1-.59-.62.66.66,0,0,1,.57-.66,6.85,6.85,0,0,1,1.2,0h49.38c.48,0,1,.09,1,.68s-.46.67-.94.67h-25.16Z" transform="translate(-2026.52 -277.56)"/><path class="cls-2" d="M2037.88,277.57c2.28,0,4.57,0,6.86,0,.94,0,1.25.31,1.22,1.25-.06,1.74,0,3.49,0,5.24,0,.42,0,.87-.57.88s-.58-.46-.58-.87c0-1.48,0-3,0-4.43,0-.87-.39-.9-1-.93s-.86.33-.85,1c0,1.39,0,2.78,0,4.17,0,.48.08,1.13-.62,1.11s-.58-.68-.58-1.15c0-1.39,0-2.79,0-4.17,0-.69-.17-.93-.89-.93s-1,.19-1,1c.06,1.39,0,2.78,0,4.17,0,.45.16,1.12-.61,1.08s-.53-.61-.53-1c0-1.44,0-2.87,0-4.31,0-.76-.3-.88-1-.87s-1,.06-1,.86c.07,1.47,0,2.95,0,4.43,0,.46,0,1-.64.94s-.5-.53-.5-.93c0-1.48,0-3,0-4.44,0-.78-.33-.85-1-.86s-1,.12-.94.87c0,1.48,0,3,0,4.44,0,.42,0,.89-.54.93s-.64-.51-.64-.95c0-1.39,0-2.78,0-4.17,0-.72,0-1.14-1-1.14s-.9.57-.9,1.2q0,2.08,0,4.17c0,.41,0,.9-.58.89s-.6-.53-.6-1c0-1.75,0-3.5,0-5.25,0-.91.36-1.15,1.2-1.14C2033.12,277.59,2035.5,277.57,2037.88,277.57Z" transform="translate(-2026.52 -277.56)"/><path class="cls-1" d="M2063.46,292.87h21.26c.31,0,.63,0,.94,0s.7.21.68.66-.31.62-.71.65-.62,0-.94,0H2041.9a4.93,4.93,0,0,1-.94,0,.63.63,0,0,1-.62-.73.63.63,0,0,1,.65-.56c.36,0,.71,0,1.07,0Z" transform="translate(-2026.52 -277.56)"/><path class="cls-2" d="M2096.21,291.1c-1.12,0-2.25-.09-3.36,0s-1.61-.4-1.45-1.54c0-.39,0-.8,0-1.21s.08-.75.55-.76a.54.54,0,0,1,.57.72c-.35,1.75.74,1.68,1.93,1.64,1.56-.05,3.13-.05,4.7,0,.76,0,1-.21,1-1,0-.52-.26-1.39.61-1.35s.51.89.57,1.42c0,.31,0,.63,0,.94,0,.79-.26,1.14-1.1,1.11C2098.9,291.06,2097.56,291.1,2096.21,291.1Z" transform="translate(-2026.52 -277.56)"/><path class="cls-2" d="M2100.41,294.8a.84.84,0,0,1,.79,1,.87.87,0,0,1-.93.91.91.91,0,0,1-.94-1C2099.38,295.09,2099.77,294.78,2100.41,294.8Z" transform="translate(-2026.52 -277.56)"/><path class="cls-3" d="M2034.46,307.13a22.1,22.1,0,0,0,0-2.82c-.15-1.29.53-1.37,1.5-1.29s1.8-.31,1.69,1.23a53,53,0,0,0,0,5.91c0,1-.32,1.27-1.21,1.13a2.15,2.15,0,0,0-.67,0c-1.14.22-1.37-.35-1.29-1.34S2034.45,308.07,2034.46,307.13Z" transform="translate(-2026.52 -277.56)"/><path class="cls-4" d="M2093.37,307.24v2.14c0,1.83-.86,2.42-2.68,1.92-.55-.16-.37-.54-.38-.85,0-2.18,0-4.37,0-6.56,0-.74.29-.95.95-.86a.66.66,0,0,0,.14,0c2,0,2,0,2,1.93Z" transform="translate(-2026.52 -277.56)"/><path class="cls-5" d="M2036,322.53c.57.17,1.2-.23,1.53.33.15.24.24.86-.12,1a5.53,5.53,0,0,1-2.77,0c-.36-.08-.29-.7-.15-.95C2034.87,322.24,2035.57,322.78,2036,322.53Z" transform="translate(-2026.52 -277.56)"/><path class="cls-6" d="M2091.79,323.93c-.31,0-.62,0-.93,0-.51,0-.57-.27-.57-.67s0-.71.54-.69,1.06,0,1.59,0,1-.17,1,.65-.46.7-1,.69Z" transform="translate(-2026.52 -277.56)"/></svg>