<svg id="Layer_1" data-name="Layer 1" xmlns="http://www.w3.org/2000/svg" viewBox="0 0 383.11 359.7">
  <defs>
    <style>
      .cls-1 {
        fill: #042b72;
      }

      .cls-2 {
        fill: #fefefe;
      }

      .cls-3 {
        fill: #fdfdfd;
      }

      .cls-4 {
        fill: #c30052;
      }

      .cls-5 {
        fill: #314584;
      }
    </style>
  </defs>
  <g>
    <path class="cls-1" d="M1238.08,94.34c3.68-9.29,10.73-12,20.34-12,71.58.22,143.17.12,214.75.12,12.4,0,18.4,6,18.4,18.3q0,39.16,0,78.34c0,4.85,0,4.85,5,4.85q23.2,0,46.4,0c11.79,0,18,6.21,18,18,0,30.11.08,60.22-.09,90.33,0,3.74,1,4.47,4.56,4.41,12.71-.22,25.44-.11,38.16-.08,11.2,0,17.54,6.45,17.54,17.7q0,54.92,0,109.83c0,11.38-6.48,17.88-17.84,17.89q-32.36,0-64.72,0c-11.62,0-17.92-6.36-18-18.1,0-12.37-.07-24.74.06-37.11,0-2.57-.61-3.39-3.28-3.37q-23.57.19-47.14,0c-2.75,0-3,.78-2.28,3.14,1.76,5.45,3.44,10.93,4.92,16.46.57,2.13,1.57,2.66,3.64,2.64,3.85-.05,7.73-.39,11.57.33A17.84,17.84,0,0,1,1503,423.24c.09,3,.09,6,0,9-.12,5.68-3.57,9.32-9.2,9.78-1,.08-2,0-3,0h-141.8c-9.16,0-12.32-3.14-12.28-12.36,0-3.36-.39-6.75.45-10.07a18.18,18.18,0,0,1,16.94-13.95c.49,0,1,0,1.49,0,3.44-.25,7.8,1.46,10.08-.71s2.36-6.37,3.37-9.7c1.15-3.77,2.26-7.56,3.49-11.71H1297c-12,0-18.18-6.23-18.19-18.25,0-22.24-.07-44.48.07-66.72,0-3.2-.92-4-4-3.87-5.86.24-11.74-.23-17.58.14-9.56.59-16.06-3.17-19.28-12.31Z" transform="translate(-1238.08 -82.36)"/>
    <path class="cls-2" d="M1364.88,283.5H1256.77c-6.81,0-7.47-.66-7.47-7.5,0-42,0-83.95-.09-125.93,0-3.42.94-4,4.11-4,31.92.13,63.84.08,95.76.08a29.08,29.08,0,0,0,3.37-.06,5.09,5.09,0,0,0,4.85-4.83,5.24,5.24,0,0,0-3.57-5.88,11.81,11.81,0,0,0-4.79-.47c-31.93,0-63.85-.07-95.77.09-3.45,0-4-1-3.94-4.11.2-10.37.06-20.74.08-31.11,0-4.67,1.34-6.05,6-6.05q109.61,0,219.21,0c4.38,0,5.84,1.46,5.86,5.84,0,10.5-.12,21,.09,31.48.06,3.08-.69,3.94-3.83,3.93-31.93-.12-63.85-.08-95.77-.06a17.76,17.76,0,0,0-4.44.33,5.13,5.13,0,0,0-4.17,5.82,5.2,5.2,0,0,0,5.1,5c1.12.09,2.25,0,3.37,0,31.92,0,63.84,0,95.76-.07,3,0,4,.58,4,3.81q-.18,63.53-.08,127c0,5.38-1.17,6.55-6.61,6.55Z" transform="translate(-1238.08 -82.36)"/>
    <path class="cls-2" d="M1405.13,343.84c-37,0-74,0-111.07.09-3.32,0-4.14-.81-4.09-4.11.2-13.73.18-27.47,0-41.21,0-3.08.77-3.93,3.89-3.93q89.56.13,179.13.08c4,0,8-.12,11.46-2.52,5.07-3.49,7.12-8.42,7.11-14.44,0-26.23.07-52.45-.1-78.68,0-3.46,1-4,4.14-4,15.83.16,31.66.07,47.49.09,5.42,0,6.68,1.23,6.68,6.58,0,30.48,0,60.95.08,91.42,0,2.93-.88,3.65-3.6,3.44-3.1-.24-6.23-.09-9.34,0-9.6.17-16.1,6.63-16.22,16.3-.11,8.87-.25,17.75.07,26.6.14,3.79-1.11,4.41-4.58,4.39C1479.18,343.79,1442.16,343.84,1405.13,343.84Z" transform="translate(-1238.08 -82.36)"/>
    <path class="cls-2" d="M1531.9,369q0-27.15,0-54.31c0-5.7,1.14-6.86,6.72-6.87h64.68c5.29,0,6.65,1.37,6.65,6.59q0,54.89,0,109.75c0,5.08-1.54,6.6-6.76,6.6h-64.68c-5.15,0-6.6-1.47-6.61-6.7Q1531.88,396.58,1531.9,369Z" transform="translate(-1238.08 -82.36)"/>
    <path class="cls-2" d="M1377.91,405.19c2-6.71,4.08-13.47,6-20.26.52-1.84,1.83-1.38,3-1.39,6.36,0,12.72,0,19.08,0,4.29-.06,6.7-2.38,6.52-6-.16-3.18-2.34-5.17-6.07-5.21-8.47-.07-17,0-25.43,0h-83.77c-6,0-7.21-1.24-7.13-7.3,0-3.21-1.41-7.48.64-9.34,1.75-1.58,5.93-.54,9-.54q108.27,0,216.54-.1c3.6,0,4.85.81,4.45,4.47a48.68,48.68,0,0,0,0,9.35c.23,2.85-.74,3.55-3.53,3.53-18.33-.13-36.65-.07-55-.07-9.35,0-18.7,0-28,0-4.6,0-6.88,1.88-6.9,5.49s2.36,5.68,6.78,5.73c6.24.06,12.47.12,18.7,0,2.17-.06,3,.69,3.57,2.7,1.57,5.76,3.3,11.49,5.06,17.2.46,1.48.64,2.3-1.37,2.29q-40.76-.12-81.51-.17C1378.4,405.49,1378.29,405.38,1377.91,405.19Z" transform="translate(-1238.08 -82.36)"/>
    <path class="cls-3" d="M1419.52,430.81c-22.69,0-45.38-.05-68.07.06-2.74,0-3.59-.56-3.54-3.45.15-8.76,1.76-10.54,10.5-10.54h123.43c8.43,0,11.63,4.06,10.05,12.46-.38,2.05-1.71,1.44-2.8,1.44-10,0-19.94,0-29.92,0Z" transform="translate(-1238.08 -82.36)"/>
    <path class="cls-4" d="M1343,214.91c0,13.24,0,26.47,0,39.71,0,7.67-3.54,11.23-11.16,11.25q-26.74,0-53.47,0c-7.7,0-11.29-3.51-11.3-11.12q0-39.9,0-79.79c0-7.53,3.48-11,11-11q26.93,0,53.84,0c7.76,0,11.09,3.36,11.1,11.2C1343,188.44,1343,201.68,1343,214.91Z" transform="translate(-1238.08 -82.36)"/>
    <path class="cls-5" d="M1411.65,208c-13.09,0-26.18,0-39.28,0-8.24,0-11.61-3.39-11.63-11.53,0-7.37,0-14.74,0-22.11,0-6.54,3.69-10.28,10.15-10.29q40.78-.06,81.55,0c6.47,0,10.09,3.74,10.13,10.31.05,7.24,0,14.49,0,21.73,0,8.64-3.28,11.88-12,11.9Z" transform="translate(-1238.08 -82.36)"/>
    <path class="cls-4" d="M1411.45,239.12c-14.7,0-29.41,0-44.12,0-3.11,0-5.4-1-6.38-4-1.06-3.26,1.16-6.55,4.75-7.12a26.65,26.65,0,0,1,4.1-.11h83.76c1,0,2-.05,3,0,3.75.24,6.07,2.48,6,5.78s-2.4,5.42-6.23,5.43c-11.85.05-23.69,0-35.53,0Z" transform="translate(-1238.08 -82.36)"/>
    <path class="cls-4" d="M1301.87,119.92c-9.1,0-18.2,0-27.3,0-4.43,0-6.78-2-6.71-5.67.06-3.44,2.42-5.54,6.58-5.55q27.66,0,55.33,0c4.12,0,6.51,2.17,6.55,5.59,0,3.59-2.34,5.61-6.79,5.62-9.22,0-18.44,0-27.66,0Z" transform="translate(-1238.08 -82.36)"/>
    <path class="cls-4" d="M1433.88,254.63c7.34,0,14.68,0,22,0,4.17,0,6.56,2,6.66,5.37.1,3.53-2.39,5.83-6.67,5.85q-22.2.08-44.4,0c-4,0-6.5-2.31-6.51-5.66s2.48-5.52,6.52-5.54C1419,254.6,1426.42,254.63,1433.88,254.63Z" transform="translate(-1238.08 -82.36)"/>
    <path class="cls-4" d="M1373.43,254.67c2.36,0,4.74-.11,7.09,0a5,5,0,0,1,5.1,4.95c.3,3.21-1.31,5.57-4.4,5.94a65.39,65.39,0,0,1-16,0c-3.1-.39-4.73-2.76-4.4-5.95a5.06,5.06,0,0,1,5.14-4.93C1368.44,254.56,1370.94,254.67,1373.43,254.67Z" transform="translate(-1238.08 -82.36)"/>
    <path class="cls-4" d="M1406.36,114.54a5.57,5.57,0,0,1-5.87,5.39,5.48,5.48,0,0,1-5.3-5.89,5.67,5.67,0,0,1,5.62-5.31A5.8,5.8,0,0,1,1406.36,114.54Z" transform="translate(-1238.08 -82.36)"/>
    <path class="cls-4" d="M1428.63,108.73a5.75,5.75,0,0,1,5.45,5.89,5.56,5.56,0,0,1-5.93,5.31,5.5,5.5,0,0,1-5.25-5.59A5.72,5.72,0,0,1,1428.63,108.73Z" transform="translate(-1238.08 -82.36)"/>
    <path class="cls-4" d="M1456.77,108.76a5.73,5.73,0,0,1,5,6.27,5.61,5.61,0,0,1-11.16-1.1A5.78,5.78,0,0,1,1456.77,108.76Z" transform="translate(-1238.08 -82.36)"/>
    <path class="cls-4" d="M1576.42,413.8a5.65,5.65,0,0,1-5.62,5.74,5.8,5.8,0,0,1-5.69-5.75,5.57,5.57,0,0,1,5.51-5.45A5.43,5.43,0,0,1,1576.42,413.8Z" transform="translate(-1238.08 -82.36)"/>
    <path class="cls-2" d="M1331.75,214.75c0,12.11-.07,24.22,0,36.34,0,2.6-.35,3.66-3.37,3.62-15.7-.17-31.41-.13-47.11,0-2.46,0-3.14-.64-3.13-3.13q.13-36.7,0-73.43c0-2.21.42-3,2.82-2.95q23.93.18,47.86,0c2.72,0,2.92,1,2.91,3.23C1331.7,190.52,1331.75,202.63,1331.75,214.75Z" transform="translate(-1238.08 -82.36)"/>
    <path class="cls-2" d="M1411.28,196.72c-12.08,0-24.17-.06-36.25.05-2.39,0-3.23-.54-3.13-3.08.21-5.24.15-10.49,0-15.72-.05-2,.34-2.79,2.59-2.78q37.17.13,74.35,0c2.31,0,2.59.87,2.55,2.81-.12,5.24-.2,10.49,0,15.72.11,2.61-.84,3.06-3.17,3C1435.94,196.66,1423.61,196.72,1411.28,196.72Z" transform="translate(-1238.08 -82.36)"/>
  </g>
</svg>
